<mxfile host="Electron" agent="Mozilla/5.0 (Windows NT 10.0; Win64; x64) AppleWebKit/537.36 (KHTML, like Gecko) draw.io/26.0.15 Chrome/132.0.6834.196 Electron/34.2.0 Safari/537.36" version="26.0.15">
  <diagram id="0hMz96jNMbJRqPp3Iw6L" name="ページ1">
    <mxGraphModel dx="1304" dy="791" grid="1" gridSize="10" guides="1" tooltips="1" connect="1" arrows="1" fold="1" page="1" pageScale="1" pageWidth="510" pageHeight="320" background="#ffffff" math="1" shadow="0">
      <root>
        <mxCell id="0" />
        <mxCell id="1" parent="0" />
        <mxCell id="iGJCEX5mNlSLBYe2I7GO-1" value="" style="shape=image;aspect=fixed;image=data:image/svg+xml,PD94bWwgdmVyc2lvbj0iMS4wIiBlbmNvZGluZz0iVVRGLTgiPz4KPHN2ZyBpZD0iX+ODrOOCpOODpOODvF8xIiBkYXRhLW5hbWU9IuODrOOCpOODpOODvF8xIiB4bWxucz0iaHR0cDovL3d3dy53My5vcmcvMjAwMC9zdmciIHZlcnNpb249IjEuMSIgdmlld0JveD0iMCAwIDIwNyA3MiI+CiAgPCEtLSBHZW5lcmF0b3I6IEFkb2JlIElsbHVzdHJhdG9yIDI5LjEuMCwgU1ZHIEV4cG9ydCBQbHVnLUluIC4gU1ZHIFZlcnNpb246IDIuMS4wIEJ1aWxkIDE0MikgIC0tPgogIDxkZWZzPgogICAgPHN0eWxlPgogICAgICAuc3QwIHsKICAgICAgICBmaWxsOiBub25lOwogICAgICAgIHN0cm9rZTogIzIzMTgxNTsKICAgICAgICBzdHJva2UtbWl0ZXJsaW1pdDogMTA7CiAgICAgIH0KICAgIDwvc3R5bGU+CiAgPC9kZWZzPgogIDxwYXRoIGNsYXNzPSJzdDAiIGQ9Ik0yNywzNkMyNywxNi4xMiwzNy4wNywwLDQ5LjUsMHMyMi41LDE2LjEyLDIyLjUsMzYiLz4KICA8cGF0aCBjbGFzcz0ic3QwIiBkPSJNNDUsMzZDNDUsMTYuMTIsNTUuMDcsMCw2Ny41LDBzMjIuNSwxNi4xMiwyMi41LDM2Ii8+CiAgPHBhdGggY2xhc3M9InN0MCIgZD0iTTcyLDM2YzAsMTkuODgtNi4wNCwzNi0xMy41LDM2cy0xMy41LTE2LjEyLTEzLjUtMzYiLz4KICA8cGF0aCBjbGFzcz0ic3QwIiBkPSJNOTAsMzZjMCwxOS44OC02LjA0LDM2LTEzLjUsMzZzLTEzLjUtMTYuMTItMTMuNS0zNiIvPgogIDxwYXRoIGNsYXNzPSJzdDAiIGQ9Ik02MywzNkM2MywxNi4xMiw3My4wNywwLDg1LjUsMHMyMi41LDE2LjEyLDIyLjUsMzYiLz4KICA8cGF0aCBjbGFzcz0ic3QwIiBkPSJNODEsMzZjMC0xOS44OCwxMC4wNy0zNiwyMi41LTM2czIyLjUsMTYuMTIsMjIuNSwzNiIvPgogIDxwYXRoIGNsYXNzPSJzdDAiIGQ9Ik0xMDgsMzZjMCwxOS44OC02LjA0LDM2LTEzLjUsMzZzLTEzLjUtMTYuMTItMTMuNS0zNiIvPgogIDxwYXRoIGNsYXNzPSJzdDAiIGQ9Ik0xMjYsMzZjMCwxOS44OC02LjA0LDM2LTEzLjUsMzZzLTEzLjUtMTYuMTItMTMuNS0zNiIvPgogIDxwYXRoIGNsYXNzPSJzdDAiIGQ9Ik0xNDQsMzZjMCwxOS44OC02LjA0LDM2LTEzLjUsMzZzLTEzLjUtMTYuMTItMTMuNS0zNiIvPgogIDxwYXRoIGNsYXNzPSJzdDAiIGQ9Ik0xNjIsMzZjMCwxOS44OC02LjA0LDM2LTEzLjUsMzZzLTEzLjUtMTYuMTItMTMuNS0zNiIvPgogIDxwYXRoIGNsYXNzPSJzdDAiIGQ9Ik05OSwzNmMwLTE5Ljg4LDEwLjA3LTM2LDIyLjUtMzZzMjIuNSwxNi4xMiwyMi41LDM2Ii8+CiAgPHBhdGggY2xhc3M9InN0MCIgZD0iTTExNywzNmMwLTE5Ljg4LDEwLjA3LTM2LDIyLjUtMzZzMjIuNSwxNi4xMiwyMi41LDM2Ii8+CiAgPHBhdGggY2xhc3M9InN0MCIgZD0iTTEzNSwzNmMwLTE5Ljg4LDEwLjA3LTM2LDIyLjUtMzZzMjIuNSwxNi4xMiwyMi41LDM2Ii8+CiAgPGxpbmUgY2xhc3M9InN0MCIgeDE9IjE4MCIgeTE9IjM2IiB4Mj0iMjA3IiB5Mj0iMzYiLz4KICA8bGluZSBjbGFzcz0ic3QwIiB5MT0iMzYiIHgyPSIyNyIgeTI9IjM2Ii8+Cjwvc3ZnPg==;rotation=30;" vertex="1" parent="1">
          <mxGeometry x="70" y="59" width="155.77" height="54" as="geometry" />
        </mxCell>
        <mxCell id="iGJCEX5mNlSLBYe2I7GO-2" value="" style="endArrow=none;html=1;rounded=0;" edge="1" parent="1">
          <mxGeometry width="50" height="50" relative="1" as="geometry">
            <mxPoint x="40" y="299" as="sourcePoint" />
            <mxPoint x="40" y="59" as="targetPoint" />
          </mxGeometry>
        </mxCell>
        <mxCell id="iGJCEX5mNlSLBYe2I7GO-3" value="" style="endArrow=none;html=1;rounded=0;" edge="1" parent="1">
          <mxGeometry width="50" height="50" relative="1" as="geometry">
            <mxPoint x="40" y="59" as="sourcePoint" />
            <mxPoint x="490" y="299" as="targetPoint" />
          </mxGeometry>
        </mxCell>
        <mxCell id="iGJCEX5mNlSLBYe2I7GO-4" value="" style="endArrow=none;html=1;rounded=0;" edge="1" parent="1">
          <mxGeometry width="50" height="50" relative="1" as="geometry">
            <mxPoint x="40" y="299" as="sourcePoint" />
            <mxPoint x="490" y="299" as="targetPoint" />
          </mxGeometry>
        </mxCell>
        <mxCell id="iGJCEX5mNlSLBYe2I7GO-6" value="" style="rounded=0;whiteSpace=wrap;html=1;rotation=28;fillColor=#FFB366;" vertex="1" parent="1">
          <mxGeometry x="53" y="10" width="30" height="60" as="geometry" />
        </mxCell>
        <mxCell id="iGJCEX5mNlSLBYe2I7GO-7" value="" style="rounded=0;whiteSpace=wrap;html=1;rotation=28;fillColor=#CCCCCC;" vertex="1" parent="1">
          <mxGeometry x="213" y="110" width="100" height="64" as="geometry" />
        </mxCell>
        <mxCell id="iGJCEX5mNlSLBYe2I7GO-9" value="" style="endArrow=none;html=1;rounded=0;curved=1;" edge="1" parent="1">
          <mxGeometry width="50" height="50" relative="1" as="geometry">
            <mxPoint x="398" y="299" as="sourcePoint" />
            <mxPoint x="412" y="257" as="targetPoint" />
            <Array as="points">
              <mxPoint x="388" y="270" />
            </Array>
          </mxGeometry>
        </mxCell>
        <mxCell id="iGJCEX5mNlSLBYe2I7GO-10" value="`\theta`" style="text;html=1;align=center;verticalAlign=middle;whiteSpace=wrap;rounded=0;fontSize=24;" vertex="1" parent="1">
          <mxGeometry x="346" y="258" width="60" height="30" as="geometry" />
        </mxCell>
        <mxCell id="iGJCEX5mNlSLBYe2I7GO-11" value="" style="shape=flexArrow;endArrow=classic;html=1;rounded=0;fillColor=#FF0000;" edge="1" parent="1">
          <mxGeometry width="50" height="50" relative="1" as="geometry">
            <mxPoint x="216" y="123" as="sourcePoint" />
            <mxPoint x="175" y="103" as="targetPoint" />
          </mxGeometry>
        </mxCell>
        <mxCell id="iGJCEX5mNlSLBYe2I7GO-12" value="`F`" style="text;html=1;align=center;verticalAlign=middle;whiteSpace=wrap;rounded=0;fontSize=24;" vertex="1" parent="1">
          <mxGeometry x="185" y="77" width="60" height="30" as="geometry" />
        </mxCell>
        <mxCell id="iGJCEX5mNlSLBYe2I7GO-13" value="" style="shape=flexArrow;endArrow=classic;html=1;rounded=0;fillColor=#0000FF;" edge="1" parent="1">
          <mxGeometry width="50" height="50" relative="1" as="geometry">
            <mxPoint x="247" y="170" as="sourcePoint" />
            <mxPoint x="290" y="90" as="targetPoint" />
          </mxGeometry>
        </mxCell>
        <mxCell id="iGJCEX5mNlSLBYe2I7GO-14" value="`N`" style="text;html=1;align=center;verticalAlign=middle;whiteSpace=wrap;rounded=0;fontSize=24;" vertex="1" parent="1">
          <mxGeometry x="268" y="56" width="60" height="30" as="geometry" />
        </mxCell>
        <mxCell id="iGJCEX5mNlSLBYe2I7GO-15" value="" style="shape=flexArrow;endArrow=classic;html=1;rounded=0;fillColor=#FF0000;" edge="1" parent="1">
          <mxGeometry width="50" height="50" relative="1" as="geometry">
            <mxPoint x="265" y="139" as="sourcePoint" />
            <mxPoint x="266" y="211" as="targetPoint" />
          </mxGeometry>
        </mxCell>
        <mxCell id="iGJCEX5mNlSLBYe2I7GO-16" value="`mg`" style="text;html=1;align=center;verticalAlign=middle;whiteSpace=wrap;rounded=0;fontSize=24;" vertex="1" parent="1">
          <mxGeometry x="198" y="174" width="60" height="30" as="geometry" />
        </mxCell>
      </root>
    </mxGraphModel>
  </diagram>
</mxfile>
